<svg width="44" height="44" viewBox="0 0 44 44" fill="none" xmlns="http://www.w3.org/2000/svg">
<path d="M40.5872 0.5H3.41277C1.80409 0.5 0.5 1.80409 0.5 3.41277C0.5 5.02144 1.80409 6.32553 3.41276 6.32553H40.5872C42.1959 6.32553 43.5 5.02144 43.5 3.41277C43.5 1.80409 42.1959 0.5 40.5872 0.5ZM40.5872 19.0872H3.41277C1.80409 19.0872 0.5 20.3913 0.5 22C0.5 23.6087 1.80409 24.9128 3.41276 24.9128H40.5872C42.1959 24.9128 43.5 23.6087 43.5 22C43.5 20.3913 42.1959 19.0872 40.5872 19.0872ZM40.5872 37.6745H3.41277C1.80409 37.6745 0.5 38.9786 0.5 40.5872C0.5 42.1959 1.80409 43.5 3.41276 43.5H40.5872C42.1959 43.5 43.5 42.1959 43.5 40.5872C43.5 38.9786 42.1959 37.6745 40.5872 37.6745Z" fill="#FF00B8" stroke="#A70079"/>
</svg>
